<svg width="18" height="21" viewBox="0 0 18 21" fill="none" xmlns="http://www.w3.org/2000/svg">
<path id="Vector" d="M17.5898 16.5209V17.4525H0.821899V16.5209L2.685 14.6578V9.06853C2.685 6.18072 4.57605 3.63759 7.34275 2.81782V2.54767C7.34275 2.05355 7.53905 1.57966 7.88844 1.23026C8.23784 0.880861 8.71173 0.68457 9.20586 0.68457C9.69998 0.68457 10.1739 0.880861 10.5233 1.23026C10.8727 1.57966 11.069 2.05355 11.069 2.54767V2.81782C13.8357 3.63759 15.7267 6.18072 15.7267 9.06853V14.6578L17.5898 16.5209ZM11.069 18.384C11.069 18.8782 10.8727 19.352 10.5233 19.7014C10.1739 20.0508 9.69998 20.2471 9.20586 20.2471C8.71173 20.2471 8.23784 20.0508 7.88844 19.7014C7.53905 19.352 7.34275 18.8782 7.34275 18.384" fill="white"/>
</svg>
