<svg width="31" height="31" viewBox="0 0 31 31" fill="none" xmlns="http://www.w3.org/2000/svg">
<g id="ph:camera-fill">
<path id="Vector" d="M25.0271 6.92451H21.726L20.1028 4.49036C20.0158 4.36002 19.8981 4.25314 19.7599 4.17919C19.6218 4.10524 19.4676 4.0665 19.3109 4.06641H11.6893C11.5326 4.0665 11.3783 4.10524 11.2402 4.17919C11.102 4.25314 10.9843 4.36002 10.8973 4.49036L9.27296 6.92451H5.97304C5.21502 6.92451 4.48805 7.22564 3.95205 7.76163C3.41605 8.29763 3.11493 9.02461 3.11493 9.78262V23.1205C3.11493 23.8785 3.41605 24.6054 3.95205 25.1414C4.48805 25.6774 5.21502 25.9786 5.97304 25.9786H25.0271C25.7851 25.9786 26.5121 25.6774 27.0481 25.1414C27.5841 24.6054 27.8852 23.8785 27.8852 23.1205V9.78262C27.8852 9.02461 27.5841 8.29763 27.0481 7.76163C26.5121 7.22564 25.7851 6.92451 25.0271 6.92451ZM19.7872 15.9752C19.7872 16.8231 19.5358 17.652 19.0647 18.357C18.5936 19.062 17.9241 19.6115 17.1407 19.936C16.3573 20.2605 15.4953 20.3454 14.6637 20.18C13.8321 20.0146 13.0682 19.6062 12.4686 19.0067C11.869 18.4071 11.4607 17.6432 11.2953 16.8116C11.1299 15.9799 11.2148 15.1179 11.5392 14.3346C11.8637 13.5512 12.4132 12.8816 13.1182 12.4105C13.8233 11.9395 14.6521 11.688 15.5001 11.688C16.6371 11.688 17.7275 12.1397 18.5315 12.9437C19.3355 13.7477 19.7872 14.8382 19.7872 15.9752Z" fill="white"/>
</g>
</svg>
