<svg width="29" height="30" viewBox="0 0 29 30" fill="none" xmlns="http://www.w3.org/2000/svg">
<g id="gravity-ui:delete">
<path id="Vector" fill-rule="evenodd" clip-rule="evenodd" d="M9.86366 6.84375H22.6563C23.3773 6.84375 24.0689 7.13019 24.5787 7.64006C25.0886 8.14992 25.375 8.84144 25.375 9.5625V20.4375C25.375 21.1586 25.0886 21.8501 24.5787 22.3599C24.0689 22.8698 23.3773 23.1563 22.6563 23.1563H9.86366C9.45602 23.1562 9.05361 23.0644 8.68622 22.8878C8.31883 22.7111 7.99586 22.4541 7.74122 22.1358L3.25529 16.5298C2.90759 16.0957 2.71814 15.5561 2.71814 15C2.71814 14.4439 2.90759 13.9043 3.25529 13.4703L7.74122 7.86419C7.99548 7.54634 8.31787 7.28964 8.68459 7.11302C9.05131 6.93641 9.453 6.84439 9.86004 6.84375M5.61335 6.16588C6.12321 5.52851 6.77001 5.0141 7.50579 4.66079C8.24157 4.30749 9.04745 4.12437 9.86366 4.125H22.6563C24.0984 4.125 25.4814 4.69788 26.5012 5.71761C27.5209 6.73734 28.0938 8.12039 28.0938 9.5625V20.4375C28.0938 21.8796 27.5209 23.2627 26.5012 24.2824C25.4814 25.3021 24.0984 25.875 22.6563 25.875H9.86366C9.04806 25.8751 8.2429 25.6917 7.50778 25.3384C6.77267 24.9851 6.12645 24.471 5.61697 23.8341L1.13285 18.2281C0.399538 17.312 0 16.1735 0 15C0 13.8265 0.399538 12.6881 1.13285 11.7719L5.61335 6.16588ZM13.195 10.4144C12.9373 10.1743 12.5965 10.0435 12.2443 10.0497C11.8922 10.056 11.5562 10.1986 11.3071 10.4477C11.058 10.6967 10.9154 11.0328 10.9092 11.3849C10.9029 11.7371 11.0337 12.0779 11.2738 12.3356L13.9382 15L11.2738 17.6644C11.1402 17.7888 11.0331 17.9389 10.9588 18.1057C10.8845 18.2724 10.8446 18.4524 10.8413 18.6349C10.8381 18.8175 10.8717 18.9988 10.9401 19.168C11.0084 19.3373 11.1102 19.491 11.2393 19.6201C11.3684 19.7492 11.5221 19.851 11.6914 19.9193C11.8607 19.9877 12.042 20.0213 12.2245 20.0181C12.407 20.0149 12.587 19.9749 12.7538 19.9006C12.9205 19.8263 13.0706 19.7192 13.195 19.5856L15.8594 16.9213L18.5238 19.5856C18.6482 19.7192 18.7983 19.8263 18.9651 19.9006C19.1318 19.9749 19.3118 20.0149 19.4943 20.0181C19.6769 20.0213 19.8582 19.9877 20.0274 19.9193C20.1967 19.851 20.3505 19.7492 20.4795 19.6201C20.6086 19.491 20.7104 19.3373 20.7788 19.168C20.8471 18.9988 20.8807 18.8175 20.8775 18.6349C20.8743 18.4524 20.8343 18.2724 20.76 18.1057C20.6857 17.9389 20.5786 17.7888 20.445 17.6644L17.7807 15L20.445 12.3356C20.6852 12.0779 20.8159 11.7371 20.8097 11.3849C20.8035 11.0328 20.6608 10.6967 20.4117 10.4477C20.1627 10.1986 19.8267 10.056 19.4745 10.0497C19.1223 10.0435 18.7815 10.1743 18.5238 10.4144L15.8594 13.0788L13.195 10.4144Z" fill="white"/>
</g>
</svg>
