<svg width="25" height="24" viewBox="0 0 25 24" fill="none" xmlns="http://www.w3.org/2000/svg">
<g id="material-symbols:event">
<path id="Vector" d="M14.875 18C14.175 18 13.5833 17.7583 13.1 17.275C12.6167 16.7917 12.375 16.2 12.375 15.5C12.375 14.8 12.6167 14.2083 13.1 13.725C13.5833 13.2417 14.175 13 14.875 13C15.575 13 16.1667 13.2417 16.65 13.725C17.1333 14.2083 17.375 14.8 17.375 15.5C17.375 16.2 17.1333 16.7917 16.65 17.275C16.1667 17.7583 15.575 18 14.875 18ZM5.375 22C4.825 22 4.35433 21.8043 3.963 21.413C3.57167 21.0217 3.37567 20.5507 3.375 20V6C3.375 5.45 3.571 4.97933 3.963 4.588C4.355 4.19667 4.82567 4.00067 5.375 4H6.375V2H8.375V4H16.375V2H18.375V4H19.375C19.925 4 20.396 4.196 20.788 4.588C21.18 4.98 21.3757 5.45067 21.375 6V20C21.375 20.55 21.1793 21.021 20.788 21.413C20.3967 21.805 19.9257 22.0007 19.375 22H5.375ZM5.375 20H19.375V10H5.375V20Z" fill="#DADEDB"/>
</g>
</svg>
