<svg width="129" height="129" viewBox="0 0 129 129" fill="none" xmlns="http://www.w3.org/2000/svg">
<path d="M64.5 29C57.0832 29 49.833 31.1993 43.6661 35.3199C37.4993 39.4404 32.6928 45.2971 29.8545 52.1494C27.0162 59.0016 26.2736 66.5416 27.7206 73.8159C29.1675 81.0902 32.739 87.772 37.9835 93.0165C43.228 98.261 49.9098 101.832 57.1841 103.279C64.4584 104.726 71.9984 103.984 78.8506 101.145C85.7029 98.3072 91.5596 93.5007 95.6801 87.3339C99.8007 81.167 102 73.9168 102 66.5C102 56.5544 98.0491 47.0161 91.0165 39.9835C83.9839 32.9509 74.4456 29 64.5 29ZM59.1429 81.4732L45.75 68.0803L50.0089 63.8214L59.1429 72.9554L78.9911 53.1071L83.2661 57.3554L59.1429 81.4732Z" fill="#1DB954"/>
</svg>
