<svg width="24" height="24" viewBox="0 0 24 24" fill="none" xmlns="http://www.w3.org/2000/svg">
<path id="Vector" d="M7.4125 12C6.0625 12.0446 4.95833 12.6161 4.1 13.7143H2.425C1.74167 13.7143 1.16667 13.5335 0.7 13.1719C0.233333 12.8103 0 12.2812 0 11.5848C0 8.43304 0.516667 6.85714 1.55 6.85714C1.6 6.85714 1.78125 6.95089 2.09375 7.13839C2.40625 7.32589 2.8125 7.51562 3.3125 7.70759C3.8125 7.89955 4.30833 7.99554 4.8 7.99554C5.35833 7.99554 5.9125 7.89286 6.4625 7.6875C6.42083 8.01786 6.4 8.3125 6.4 8.57143C6.4 9.8125 6.7375 10.9554 7.4125 12ZM20.8 20.5312C20.8 21.6027 20.4958 22.4487 19.8875 23.0692C19.2792 23.6897 18.4708 24 17.4625 24H6.5375C5.52917 24 4.72083 23.6897 4.1125 23.0692C3.50417 22.4487 3.2 21.6027 3.2 20.5312C3.2 20.058 3.21458 19.596 3.24375 19.1451C3.27292 18.6942 3.33125 18.2076 3.41875 17.6853C3.50625 17.1629 3.61667 16.6786 3.75 16.2321C3.88333 15.7857 4.0625 15.3504 4.2875 14.9263C4.5125 14.5022 4.77083 14.1406 5.0625 13.8415C5.35417 13.5424 5.71042 13.3036 6.13125 13.125C6.55208 12.9464 7.01667 12.8571 7.525 12.8571C7.60833 12.8571 7.7875 12.9531 8.0625 13.1451C8.3375 13.3371 8.64167 13.5513 8.975 13.7879C9.30833 14.0246 9.75417 14.2388 10.3125 14.4308C10.8708 14.6228 11.4333 14.7188 12 14.7188C12.5667 14.7188 13.1292 14.6228 13.6875 14.4308C14.2458 14.2388 14.6917 14.0246 15.025 13.7879C15.3583 13.5513 15.6625 13.3371 15.9375 13.1451C16.2125 12.9531 16.3917 12.8571 16.475 12.8571C16.9833 12.8571 17.4479 12.9464 17.8687 13.125C18.2896 13.3036 18.6458 13.5424 18.9375 13.8415C19.2292 14.1406 19.4875 14.5022 19.7125 14.9263C19.9375 15.3504 20.1167 15.7857 20.25 16.2321C20.3833 16.6786 20.4937 17.1629 20.5813 17.6853C20.6688 18.2076 20.7271 18.6942 20.7563 19.1451C20.7854 19.596 20.8 20.058 20.8 20.5312ZM8 3.42857C8 4.375 7.6875 5.18304 7.0625 5.85268C6.4375 6.52232 5.68333 6.85714 4.8 6.85714C3.91667 6.85714 3.1625 6.52232 2.5375 5.85268C1.9125 5.18304 1.6 4.375 1.6 3.42857C1.6 2.48214 1.9125 1.67411 2.5375 1.00446C3.1625 0.334821 3.91667 0 4.8 0C5.68333 0 6.4375 0.334821 7.0625 1.00446C7.6875 1.67411 8 2.48214 8 3.42857ZM16.8 8.57143C16.8 9.99107 16.3313 11.2031 15.3938 12.2076C14.4563 13.2121 13.325 13.7143 12 13.7143C10.675 13.7143 9.54375 13.2121 8.60625 12.2076C7.66875 11.2031 7.2 9.99107 7.2 8.57143C7.2 7.15179 7.66875 5.93973 8.60625 4.93527C9.54375 3.9308 10.675 3.42857 12 3.42857C13.325 3.42857 14.4563 3.9308 15.3938 4.93527C16.3313 5.93973 16.8 7.15179 16.8 8.57143ZM24 11.5848C24 12.2812 23.7667 12.8103 23.3 13.1719C22.8333 13.5335 22.2583 13.7143 21.575 13.7143H19.9C19.0417 12.6161 17.9375 12.0446 16.5875 12C17.2625 10.9554 17.6 9.8125 17.6 8.57143C17.6 8.3125 17.5792 8.01786 17.5375 7.6875C18.0875 7.89286 18.6417 7.99554 19.2 7.99554C19.6917 7.99554 20.1875 7.89955 20.6875 7.70759C21.1875 7.51562 21.5938 7.32589 21.9062 7.13839C22.2188 6.95089 22.4 6.85714 22.45 6.85714C23.4833 6.85714 24 8.43304 24 11.5848ZM22.4 3.42857C22.4 4.375 22.0875 5.18304 21.4625 5.85268C20.8375 6.52232 20.0833 6.85714 19.2 6.85714C18.3167 6.85714 17.5625 6.52232 16.9375 5.85268C16.3125 5.18304 16 4.375 16 3.42857C16 2.48214 16.3125 1.67411 16.9375 1.00446C17.5625 0.334821 18.3167 0 19.2 0C20.0833 0 20.8375 0.334821 21.4625 1.00446C22.0875 1.67411 22.4 2.48214 22.4 3.42857Z" fill="white"/>
</svg>
