<svg width="25" height="24" viewBox="0 0 25 24" fill="none" xmlns="http://www.w3.org/2000/svg">
<g id="mdi:heart-outline">
<path id="Vector" d="M12.725 18.55L12.625 18.65L12.515 18.55C7.765 14.24 4.625 11.39 4.625 8.5C4.625 6.5 6.125 5 8.125 5C9.665 5 11.165 6 11.695 7.36H13.555C14.085 6 15.585 5 17.125 5C19.125 5 20.625 6.5 20.625 8.5C20.625 11.39 17.485 14.24 12.725 18.55ZM17.125 3C15.385 3 13.715 3.81 12.625 5.08C11.535 3.81 9.865 3 8.125 3C5.045 3 2.625 5.41 2.625 8.5C2.625 12.27 6.025 15.36 11.175 20.03L12.625 21.35L14.075 20.03C19.225 15.36 22.625 12.27 22.625 8.5C22.625 5.41 20.205 3 17.125 3Z" fill="#DADEDB"/>
</g>
</svg>
