<svg width="40" height="40" viewBox="0 0 40 40" fill="none" xmlns="http://www.w3.org/2000/svg">
<g id="material-symbols:arrow-left-alt-rounded">
<path id="Vector" d="M13.0833 21.6666L17.8333 26.4166C18.1666 26.7499 18.3266 27.1388 18.3133 27.5832C18.3 28.0277 18.14 28.4166 17.8333 28.7499C17.5 29.0832 17.1044 29.2571 16.6466 29.2716C16.1889 29.286 15.7928 29.126 15.4583 28.7916L7.83331 21.1666C7.49998 20.8332 7.33331 20.4443 7.33331 19.9999C7.33331 19.5555 7.49998 19.1666 7.83331 18.8332L15.4583 11.2082C15.7916 10.8749 16.1878 10.7155 16.6466 10.7299C17.1055 10.7443 17.5011 10.9177 17.8333 11.2499C18.1389 11.5832 18.2989 11.9721 18.3133 12.4166C18.3278 12.861 18.1678 13.2499 17.8333 13.5832L13.0833 18.3332H31.6666C32.1389 18.3332 32.535 18.4932 32.855 18.8132C33.175 19.1332 33.3344 19.5288 33.3333 19.9999C33.3322 20.471 33.1722 20.8671 32.8533 21.1882C32.5344 21.5093 32.1389 21.6688 31.6666 21.6666H13.0833Z" fill="white"/>
</g>
</svg>
