<svg width="75" height="75" viewBox="0 0 75 75" fill="none" xmlns="http://www.w3.org/2000/svg">
<circle cx="37.5" cy="37.5" r="37.5" fill="#1DB954"/>
<path d="M32.5044 37.0706L45.8358 32.1767V40.3136C44.9993 39.827 44.0526 39.5733 43.0901 39.5778C40.2755 39.5778 37.9942 41.6722 37.9942 44.2557C37.9942 46.8393 40.2755 48.9337 43.0901 48.9337C45.9062 48.9337 48.1875 46.8393 48.1875 44.2557V30.5038C48.1875 28.8588 48.1875 27.4797 48.061 26.3811C48.0439 26.2288 48.0232 26.077 47.9992 25.9257C47.8784 25.1767 47.6628 24.4746 47.2488 23.8901C46.9893 23.523 46.6585 23.2145 46.2771 22.9838L46.2641 22.9765C45.1558 22.2994 43.9081 22.3479 42.6244 22.6475C41.3824 22.9383 39.8414 23.5287 37.9525 24.2558L34.6692 25.5174C33.7852 25.8567 33.0348 26.1446 32.4454 26.4427C31.8201 26.76 31.2811 27.1345 30.8757 27.6927C30.4717 28.2508 30.3036 28.853 30.2259 29.5051C30.1541 30.119 30.1541 30.8652 30.1541 31.7449V43.1924C29.3177 42.7058 28.3709 42.4521 27.4084 42.4565C24.5938 42.4565 22.3125 44.551 22.3125 47.1345C22.3125 49.718 24.5938 51.8125 27.4084 51.8125C30.2245 51.8125 32.5058 49.718 32.5058 47.1345L32.5044 37.0706Z" fill="white"/>
<circle cx="64.5" cy="39.75" r="4.5" fill="white"/>
<circle cx="37.5" cy="65.25" r="4.5" fill="white"/>
<circle cx="9.75" cy="39.75" r="4.5" fill="white"/>
<circle cx="37.5" cy="9.75" r="4.5" fill="white"/>
</svg>
