<svg width="30" height="30" viewBox="0 0 30 30" fill="none" xmlns="http://www.w3.org/2000/svg">
<g id="ph:arrow-right-bold">
<path id="Vector" d="M26.3074 15.9948L17.8699 24.4323C17.6057 24.6965 17.2474 24.8449 16.8738 24.8449C16.5002 24.8449 16.1419 24.6965 15.8777 24.4323C15.6136 24.1681 15.4651 23.8098 15.4651 23.4362C15.4651 23.0626 15.6136 22.7043 15.8777 22.4401L21.9141 16.4061H4.6875C4.31454 16.4061 3.95685 16.258 3.69313 15.9943C3.42941 15.7305 3.28125 15.3729 3.28125 14.9999C3.28125 14.6269 3.42941 14.2693 3.69313 14.0055C3.95685 13.7418 4.31454 13.5936 4.6875 13.5936H21.9141L15.8801 7.55615C15.6159 7.29197 15.4675 6.93366 15.4675 6.56006C15.4675 6.18645 15.6159 5.82814 15.8801 5.56396C16.1443 5.29978 16.5026 5.15137 16.8762 5.15137C17.2498 5.15137 17.6081 5.29978 17.8723 5.56396L26.3098 14.0015C26.4409 14.1323 26.5449 14.2877 26.6158 14.4588C26.6866 14.63 26.723 14.8134 26.7228 14.9986C26.7226 15.1839 26.6858 15.3672 26.6145 15.5382C26.5432 15.7091 26.4389 15.8643 26.3074 15.9948Z" fill="#DADEDB"/>
</g>
</svg>
