<svg width="30" height="29" viewBox="0 0 30 29" fill="none" xmlns="http://www.w3.org/2000/svg">
<g id="mingcute:send-fill" clip-path="url(#clip0_380_3248)">
<g id="Group">
<path id="Vector" d="M24.8859 6.89047C25.4065 5.45034 24.011 4.0548 22.5708 4.57662L4.96994 10.9421C3.52499 11.4651 3.35025 13.4367 4.6795 14.2068L10.2978 17.4594L15.3148 12.4425C15.5421 12.223 15.8465 12.1015 16.1624 12.1042C16.4784 12.107 16.7807 12.2337 17.0041 12.4572C17.2276 12.6806 17.3543 12.9829 17.3571 13.2989C17.3598 13.6148 17.2383 13.9193 17.0188 14.1465L12.0019 19.1635L15.2557 24.7818C16.0246 26.1111 17.9962 25.9351 18.5192 24.4914L24.8859 6.89047Z" fill="white"/>
</g>
</g>
<defs>
<clipPath id="clip0_380_3248">
<rect width="28.9231" height="28.9231" fill="white" transform="translate(0.5 0.0390625)"/>
</clipPath>
</defs>
</svg>
