<svg width="30" height="30" viewBox="0 0 30 30" fill="none" xmlns="http://www.w3.org/2000/svg">
<g id="carbon:checkmark-filled">
<path id="Vector" d="M15 1.875C12.4041 1.875 9.86654 2.64477 7.70815 4.08696C5.54975 5.52915 3.86749 7.579 2.87409 9.97728C1.88069 12.3756 1.62077 15.0146 2.1272 17.5606C2.63363 20.1066 3.88366 22.4452 5.71923 24.2808C7.55479 26.1163 9.89345 27.3664 12.4394 27.8728C14.9854 28.3792 17.6244 28.1193 20.0227 27.1259C22.421 26.1325 24.4708 24.4503 25.913 22.2919C27.3552 20.1335 28.125 17.5959 28.125 15C28.125 11.519 26.7422 8.18064 24.2808 5.71922C21.8194 3.25781 18.481 1.875 15 1.875ZM13.125 20.2406L8.43751 15.5531L9.92813 14.0625L13.125 17.2594L20.0719 10.3125L21.5681 11.7994L13.125 20.2406Z" fill="white"/>
</g>
</svg>
